<?xml version="1.0" encoding="utf-8"?>
<!-- Generator: Adobe Illustrator 18.0.0, SVG Export Plug-In . SVG Version: 6.00 Build 0)  -->
<!DOCTYPE svg PUBLIC "-//W3C//DTD SVG 1.1//EN" "http://www.w3.org/Graphics/SVG/1.1/DTD/svg11.dtd">
<svg version="1.1" id="Layer_1" xmlns="http://www.w3.org/2000/svg" xmlns:xlink="http://www.w3.org/1999/xlink" x="0px" y="0px"
	 viewBox="0 0 800 440" enable-background="new 0 0 800 440" xml:space="preserve">
<path id="info-7-icon" fill="#1C1C1C" d="M400.1,50c-97.2,0-184.3,65.5-184.3,155c0,31.7,11.3,62.8,31.4,87.1
	c0.9,28.4-15.7,69-30.5,98.7c40-7.4,96.6-23.4,122.4-39.4c141.6,34.7,245-52.7,245-146.7C584.4,114.9,496.7,50,400.1,50z
	 M427.4,289.1h-46.5V184h46.5V289.1z M403.9,162c-13.9,0-25.2-11.3-25.2-25.2s11.3-25.2,25.2-25.2s25.2,11.3,25.2,25.2
	S417.9,162,403.9,162z"/>
</svg>
