<svg xmlns="http://www.w3.org/2000/svg" viewBox="0 0 156.3 164.8" enable-background="new 0 0 156.3 164.8"><g fill="#33425B"><path d="M78 86.9c18.9 0 34.1-15.2 34.1-34.1 0-18.9-15.2-34.1-34.1-34.1s-34.1 15.2-34.1 34c0 18.9 15.2 34.2 34.1 34.2zm3.2-18.7c-.9.9-2 1.3-3.3 1.3-.6 0-1.2-.1-1.8-.3-.6-.2-1.1-.5-1.5-1-.4-.4-.8-.9-1-1.4-.3-.5-.4-1.1-.4-1.8 0-.6.1-1.2.4-1.8.2-.6.6-1.1 1-1.5.4-.4.9-.7 1.5-1 .6-.2 1.2-.4 1.8-.4.6 0 1.2.1 1.8.4.6.2 1.1.6 1.5 1 .4.4.8.9 1 1.4.2.6.4 1.1.4 1.8-.1 1.4-.5 2.5-1.4 3.3zm-13.8-28.3c.7-1.3 1.6-2.4 2.7-3.3 1.1-.9 2.3-1.5 3.7-2 1.4-.4 2.8-.7 4.4-.7 1.4 0 2.9.2 4.2.6 1.4.4 2.6.9 3.6 1.7 1.1.8 1.9 1.8 2.6 3 .6 1.2 1 2.7 1 4.3 0 1.1-.1 2-.4 2.8-.3.8-.6 1.5-1.1 2.2-.5.7-1 1.3-1.7 1.9-.7.6-1.4 1.2-2.3 1.9-.5.4-.9.8-1.3 1.1-.3.3-.6.7-.8 1-.2.3-.5.7-.6 1.1-.1.4-.3.8-.3 1.3v1.4h-6v-2c0-.8-.5-1.6-.3-2.2.2-.7.1-1.3.4-1.8.3-.5.6-1.1 1-1.6l1.6-1.6 1.6-1.5c.5-.5 1-1 1.4-1.5.4-.5.6-1.2.6-1.9 0-1-.3-1.8-.9-2.5-.6-.6-1.5-.9-2.6-.9-1.3 0-2.4.5-3 1.4-.7.9-1 2-1.1 3.1l-7.7-.8c.2-1.6.6-3.1 1.3-4.5zM136.9 118.1c-5.8-13.1-16.8-22.5-31.3-26.1l-2.9-.7-2.2 1.5c-7.2 3.5-14.5 5.7-22.5 5.7-7.3 0-16-2.2-22.5-5.8l-2.2-1.5-2.9.8c-14.5 3.6-26.1 13.1-31.2 25.4-3.6 6.5-5.1 14.5-5.1 23.2v7.8h128v-7.8c0-7.3-2.3-15.2-5.2-22.5z"/></g></svg>