<?xml version="1.0" encoding="utf-8"?>
<!-- Generator: Adobe Illustrator 18.0.0, SVG Export Plug-In . SVG Version: 6.00 Build 0)  -->
<!DOCTYPE svg PUBLIC "-//W3C//DTD SVG 1.1//EN" "http://www.w3.org/Graphics/SVG/1.1/DTD/svg11.dtd">
<svg version="1.1" id="Layer_1" xmlns="http://www.w3.org/2000/svg" xmlns:xlink="http://www.w3.org/1999/xlink" x="0px" y="0px"
	 viewBox="0 0 156.3 164.8" enable-background="new 0 0 156.3 164.8" xml:space="preserve">
<g>
	<path fill="#33425B" d="M78,86.9c18.9,0,34.1-15.2,34.1-34.1c0-18.9-15.2-34.1-34.1-34.1S43.9,33.9,43.9,52.7
		C43.9,71.6,59.1,86.9,78,86.9z M81.2,68.2c-0.9,0.9-2,1.3-3.3,1.3c-0.6,0-1.2-0.1-1.8-0.3c-0.6-0.2-1.1-0.5-1.5-1
		c-0.4-0.4-0.8-0.9-1-1.4c-0.3-0.5-0.4-1.1-0.4-1.8c0-0.6,0.1-1.2,0.4-1.8c0.2-0.6,0.6-1.1,1-1.5c0.4-0.4,0.9-0.7,1.5-1
		c0.6-0.2,1.2-0.4,1.8-0.4c0.6,0,1.2,0.1,1.8,0.4c0.6,0.2,1.1,0.6,1.5,1c0.4,0.4,0.8,0.9,1,1.4c0.2,0.6,0.4,1.1,0.4,1.8
		C82.5,66.3,82.1,67.4,81.2,68.2z M67.4,39.9c0.7-1.3,1.6-2.4,2.7-3.3c1.1-0.9,2.3-1.5,3.7-2c1.4-0.4,2.8-0.7,4.4-0.7
		c1.4,0,2.9,0.2,4.2,0.6c1.4,0.4,2.6,0.9,3.6,1.7c1.1,0.8,1.9,1.8,2.6,3c0.6,1.2,1,2.7,1,4.3c0,1.1-0.1,2-0.4,2.8
		c-0.3,0.8-0.6,1.5-1.1,2.2c-0.5,0.7-1,1.3-1.7,1.9c-0.7,0.6-1.4,1.2-2.3,1.9c-0.5,0.4-0.9,0.8-1.3,1.1c-0.3,0.3-0.6,0.7-0.8,1
		c-0.2,0.3-0.5,0.7-0.6,1.1c-0.1,0.4-0.3,0.8-0.3,1.3v1.4h-6v-2c0-0.8-0.5-1.6-0.3-2.2c0.2-0.7,0.1-1.3,0.4-1.8
		c0.3-0.5,0.6-1.1,1-1.6c0.5-0.5,1-1,1.6-1.6l1.6-1.5c0.5-0.5,1-1,1.4-1.5c0.4-0.5,0.6-1.2,0.6-1.9c0-1-0.3-1.8-0.9-2.5
		c-0.6-0.6-1.5-0.9-2.6-0.9c-1.3,0-2.4,0.5-3,1.4c-0.7,0.9-1,2-1.1,3.1l-7.7-0.8C66.3,42.8,66.7,41.3,67.4,39.9z"/>
	<path fill="#33425B" d="M136.9,118.1c-5.8-13.1-16.8-22.5-31.3-26.1l-2.9-0.7l-2.2,1.5C93.3,96.3,86,98.5,78,98.5
		c-7.3,0-16-2.2-22.5-5.8l-2.2-1.5L50.4,92c-14.5,3.6-26.1,13.1-31.2,25.4c-3.6,6.5-5.1,14.5-5.1,23.2v7.8h128v-7.8
		C142.1,133.3,139.8,125.4,136.9,118.1z"/>
</g>
</svg>
