<?xml version="1.0" encoding="utf-8"?>
<!-- Generator: Adobe Illustrator 18.0.0, SVG Export Plug-In . SVG Version: 6.00 Build 0)  -->
<!DOCTYPE svg PUBLIC "-//W3C//DTD SVG 1.1//EN" "http://www.w3.org/Graphics/SVG/1.1/DTD/svg11.dtd">
<svg version="1.1" id="Layer_1" xmlns="http://www.w3.org/2000/svg" xmlns:xlink="http://www.w3.org/1999/xlink" x="0px" y="0px"
	 viewBox="0 0 156.3 164.8" enable-background="new 0 0 156.3 164.8" xml:space="preserve">
<path id="info-7-icon" fill="#33425B" d="M78.4,25.9c-32.8,0-62.2,22.1-62.2,52.3c0,10.7,3.8,21.2,10.6,29.4
	c0.3,9.6-5.3,23.3-10.3,33.3c13.5-2.5,32.6-7.9,41.3-13.3c47.8,11.7,82.7-17.8,82.7-49.5C140.5,47.8,111,25.9,78.4,25.9z
	 M87.5,106.6H71.8V71.1h15.7V106.6z M79.7,63.7c-4.7,0-8.5-3.8-8.5-8.5s3.8-8.5,8.5-8.5c4.7,0,8.5,3.8,8.5,8.5S84.4,63.7,79.7,63.7z
	"/>
</svg>
